# xmcd CD database file generated by OrangeCD 6.3
#
# Track frame offsets:
#	150
#	16481
#	29385
#	44290
#	57761
#	72703
#
# Disc length: 1148 seconds
#
# Revision: 0
# Processed by: cddbd v1.5.2PL0 Copyright (c) Steve Scherf et al.
# Submitted via: OrangeCD 6.3
#
DISCID=4f047a06
DTITLE=The Dean Brothers - Let's Dance
DYEAR=1997
DGENRE=
TTITLE0=King Of The Road
TTITLE1=Let's Dance
TTITLE2=Smokey Places
TTITLE3=Two Piña Coladas (With No Bridge)
TTITLE4=The Outback Club
TTITLE5=Country Down To My Soul
EXTD=
EXTT0=
EXTT1=
EXTT2=
EXTT3=
EXTT4=
EXTT5=
PLAYORDER=
